# Blender 3.1.0
# www.blender.org
mtllib BasicTowerComputer.mtl
o Cube
v 1.000000 5.970380 -2.941085
v 1.000000 -0.024874 -2.941085
v 1.000000 5.970380 2.883795
v 1.000000 -0.024874 2.883795
v -1.000000 5.970380 -2.941085
v -1.000000 -0.024874 -2.941085
v -1.000000 5.970380 2.883795
v -1.000000 -0.024874 2.883795
v 1.000000 5.970380 -2.941085
v 1.000000 -0.024874 -2.941085
v -1.000000 5.970380 -2.941085
v -1.000000 -0.024874 -2.941085
v -0.794405 5.068695 -2.941085
v -0.794405 5.068695 -2.990449
v 0.779829 5.068695 -2.941085
v 0.779829 5.068695 -2.990449
v -0.794405 5.762641 -2.941085
v -0.794405 5.762641 -2.990449
v 0.779829 5.762641 -2.941085
v 0.779829 5.762641 -2.990449
vn -0.0000 1.0000 -0.0000
vn -0.0000 -0.0000 1.0000
vn -1.0000 -0.0000 -0.0000
vn -0.0000 -1.0000 -0.0000
vn 1.0000 -0.0000 -0.0000
vn -0.0000 -0.0000 -1.0000
vt 0.625000 0.500000
vt 0.375000 0.500000
vt 0.625000 0.750000
vt 0.375000 0.750000
vt 0.875000 0.500000
vt 0.625000 0.250000
vt 0.375000 0.250000
vt 0.125000 0.500000
vt 0.875000 0.750000
vt 0.625000 1.000000
vt 0.625000 0.000000
vt 0.375000 1.000000
vt 0.375000 0.000000
vt 0.125000 0.750000
vt 0.625000 0.500000
vt 0.375000 0.500000
vt 0.625000 0.250000
vt 0.375000 0.250000
vt 0.375000 0.000000
vt 0.375000 1.000000
vt 0.125000 0.750000
vt 0.625000 0.000000
vt 0.625000 1.000000
vt 0.875000 0.750000
vt 0.375000 0.250000
vt 0.125000 0.500000
vt 0.625000 0.250000
vt 0.875000 0.500000
vt 0.375000 0.750000
vt 0.625000 0.750000
vt 0.375000 0.500000
vt 0.625000 0.500000
s 0
usemtl Material
f 1/1/1 5/5/1 7/9/1 3/3/1
f 4/4/2 3/3/2 7/10/2 8/12/2
f 8/13/3 7/11/3 5/6/3 6/7/3
f 6/8/4 2/2/4 4/4/4 8/14/4
f 2/2/5 1/1/5 3/3/5 4/4/5
f 12/18/2 10/16/2 9/15/2 11/17/2
f 13/19/4 14/22/4 16/27/4 15/25/4
f 15/25/5 16/27/5 20/32/5 19/31/5
f 19/31/1 20/32/1 18/30/1 17/29/1
f 17/29/3 18/30/3 14/23/3 13/20/3
f 15/26/2 19/31/2 17/29/2 13/21/2
f 20/32/6 16/28/6 14/24/6 18/30/6
