# Blender 3.1.0
# www.blender.org
mtllib BasicTowerComputer2.mtl
o Cube
v 1.000000 5.042277 -3.014725
v 1.000000 -1.000000 -3.014725
v 1.000000 5.042277 3.035192
v 1.000000 -1.000000 3.035192
v -1.000000 5.042277 -3.014725
v -1.000000 -1.000000 -3.014725
v -1.000000 5.042277 3.035192
v -1.000000 -1.000000 3.035192
v 1.000000 2.021138 -3.014725
v -1.000000 2.021138 3.035192
v 1.000000 2.021138 3.035192
v -1.000000 2.021138 -3.014725
v -1.000000 3.531708 3.035192
v 1.000000 3.531708 -3.014725
v 1.000000 3.531708 3.035192
v -1.000000 3.531708 -3.014725
v -0.800000 4.891220 -3.014725
v 0.800000 4.891220 -3.014725
v 0.800000 3.682765 -3.014725
v -0.800000 3.682765 -3.014725
v 0.800000 3.380651 -3.014725
v 0.800000 2.172195 -3.014725
v -0.800000 3.380651 -3.014725
v -0.800000 2.172195 -3.014725
v -0.800000 4.891220 -2.769422
v 0.800000 4.891220 -2.769422
v 0.800000 3.682765 -2.769422
v -0.800000 3.682765 -2.769422
v 0.800000 3.380651 -2.769422
v 0.800000 2.172195 -2.769422
v -0.800000 3.380651 -2.769422
v -0.800000 2.172195 -2.769422
v 1.000000 -0.227080 -3.014725
v 1.000000 -0.227080 3.035192
v -1.000000 -0.227080 -3.014725
v -1.000000 -0.227080 3.035192
v -1.000000 1.265854 3.035192
v 1.000000 1.265854 -3.014725
v 1.000000 1.265854 3.035192
v -1.000000 1.265854 -3.014725
v 0.700000 1.041914 -3.014725
v 0.700000 -0.003140 -3.014725
v -0.700000 1.041914 -3.014725
v -0.700000 -0.003140 -3.014725
v 0.700000 1.041914 -3.077585
v 0.700000 -0.003140 -3.077585
v -0.700000 1.041914 -3.077585
v -0.700000 -0.003140 -3.077585
v 0.128557 0.211229 -3.077585
v 0.128557 0.211229 -3.164698
v 0.483612 0.211229 -3.077585
v 0.483612 0.211229 -3.164698
v 0.128557 0.914856 -3.077585
v 0.128557 0.914856 -3.164698
v 0.483612 0.914856 -3.077585
v 0.483612 0.914856 -3.164698
v -0.521183 0.211229 -3.077585
v -0.521183 0.211229 -3.164698
v -0.166128 0.211229 -3.077585
v -0.166128 0.211229 -3.164698
v -0.521183 0.914856 -3.077585
v -0.521183 0.914856 -3.164698
v -0.166128 0.914856 -3.077585
v -0.166128 0.914856 -3.164698
vn -0.0000 1.0000 -0.0000
vn -0.0000 -0.0000 1.0000
vn -1.0000 -0.0000 -0.0000
vn -0.0000 -1.0000 -0.0000
vn 1.0000 -0.0000 -0.0000
vn -0.0000 -0.0000 -1.0000
vt 0.625000 0.500000
vt 0.375000 0.500000
vt 0.625000 0.750000
vt 0.375000 0.750000
vt 0.625000 0.250000
vt 0.875000 0.500000
vt 0.125000 0.500000
vt 0.375000 0.250000
vt 0.875000 0.750000
vt 0.625000 1.000000
vt 0.625000 0.000000
vt 0.125000 0.750000
vt 0.375000 1.000000
vt 0.375000 0.000000
vt 0.500000 0.500000
vt 0.500000 0.000000
vt 0.500000 1.000000
vt 0.500000 0.750000
vt 0.500000 0.250000
vt 0.562500 0.000000
vt 0.562500 1.000000
vt 0.562500 0.500000
vt 0.562500 0.750000
vt 0.562500 0.250000
vt 0.875000 0.500000
vt 0.625000 0.250000
vt 0.625000 0.500000
vt 0.562500 0.500000
vt 0.562500 0.250000
vt 0.562500 0.500000
vt 0.500000 0.500000
vt 0.562500 0.250000
vt 0.500000 0.250000
vt 0.875000 0.500000
vt 0.625000 0.250000
vt 0.625000 0.500000
vt 0.562500 0.500000
vt 0.562500 0.250000
vt 0.562500 0.500000
vt 0.500000 0.500000
vt 0.562500 0.250000
vt 0.500000 0.250000
vt 0.437500 0.500000
vt 0.437500 0.750000
vt 0.437500 0.250000
vt 0.437500 1.000000
vt 0.437500 0.000000
vt 0.468750 1.000000
vt 0.468750 0.000000
vt 0.468750 0.500000
vt 0.468750 0.750000
vt 0.468750 0.250000
vt 0.468750 0.500000
vt 0.437500 0.500000
vt 0.468750 0.250000
vt 0.437500 0.250000
vt 0.468750 0.500000
vt 0.437500 0.500000
vt 0.468750 0.250000
vt 0.437500 0.250000
vt 0.375000 0.000000
vt 0.375000 1.000000
vt 0.125000 0.750000
vt 0.625000 0.000000
vt 0.625000 1.000000
vt 0.875000 0.750000
vt 0.375000 0.250000
vt 0.125000 0.500000
vt 0.625000 0.250000
vt 0.875000 0.500000
vt 0.375000 0.750000
vt 0.625000 0.750000
vt 0.375000 0.500000
vt 0.625000 0.500000
vt 0.375000 0.000000
vt 0.375000 1.000000
vt 0.125000 0.750000
vt 0.625000 0.000000
vt 0.625000 1.000000
vt 0.875000 0.750000
vt 0.375000 0.250000
vt 0.125000 0.500000
vt 0.625000 0.250000
vt 0.875000 0.500000
vt 0.375000 0.750000
vt 0.625000 0.750000
vt 0.375000 0.500000
vt 0.625000 0.500000
s 0
usemtl Material
f 1/1/1 5/6/1 7/9/1 3/3/1
f 15/23/2 3/3/2 7/10/2 13/21/2
f 13/20/3 7/11/3 5/5/3 16/24/3
f 6/7/4 2/2/4 4/4/4 8/12/4
f 14/22/5 1/1/5 3/3/5 15/23/5
f 14/22/6 16/24/6 20/29/6 19/28/6
f 40/52/6 12/19/6 9/15/6 38/50/6
f 38/50/5 9/15/5 11/18/5 39/51/5
f 37/49/3 10/16/3 12/19/3 40/52/3
f 39/51/2 11/18/2 10/17/2 37/48/2
f 12/19/6 16/24/6 23/32/6 24/33/6
f 9/15/5 14/22/5 15/23/5 11/18/5
f 10/16/3 13/20/3 16/24/3 12/19/3
f 11/18/2 15/23/2 13/21/2 10/17/2
f 17/25/4 18/27/4 26/36/4 25/34/4
f 16/24/6 5/5/6 17/26/6 20/29/6
f 5/6/6 1/1/6 18/27/6 17/25/6
f 1/1/6 14/22/6 19/28/6 18/27/6
f 23/32/4 21/30/4 29/39/4 31/41/4
f 16/24/6 14/22/6 21/30/6 23/32/6
f 9/15/6 12/19/6 24/33/6 22/31/6
f 14/22/6 9/15/6 22/31/6 21/30/6
f 28/38/6 25/35/6 26/36/6 27/37/6
f 32/42/6 31/41/6 29/39/6 30/40/6
f 24/33/5 23/32/5 31/41/5 32/42/5
f 19/28/1 20/29/1 28/38/1 27/37/1
f 18/27/3 19/28/3 27/37/3 26/36/3
f 22/31/1 24/33/1 32/42/1 30/40/1
f 21/30/3 22/31/3 30/40/3 29/39/3
f 20/29/5 17/26/5 25/35/5 28/38/5
f 4/4/2 34/44/2 36/46/2 8/13/2
f 8/14/3 36/47/3 35/45/3 6/8/3
f 2/2/5 33/43/5 34/44/5 4/4/5
f 6/8/6 35/45/6 33/43/6 2/2/6
f 34/44/2 39/51/2 37/48/2 36/46/2
f 36/47/3 37/49/3 40/52/3 35/45/3
f 33/43/5 38/50/5 39/51/5 34/44/5
f 40/52/6 38/50/6 41/53/6 43/55/6
f 43/55/1 41/53/1 45/57/1 47/59/1
f 35/45/6 40/52/6 43/55/6 44/56/6
f 38/50/6 33/43/6 42/54/6 41/53/6
f 33/43/6 35/45/6 44/56/6 42/54/6
f 48/60/6 47/59/6 45/57/6 46/58/6
f 44/56/3 43/55/3 47/59/3 48/60/3
f 42/54/4 44/56/4 48/60/4 46/58/4
f 41/53/5 42/54/5 46/58/5 45/57/5
f 49/61/4 50/64/4 52/69/4 51/67/4
f 51/67/5 52/69/5 56/74/5 55/73/5
f 55/73/1 56/74/1 54/72/1 53/71/1
f 53/71/3 54/72/3 50/65/3 49/62/3
f 51/68/2 55/73/2 53/71/2 49/63/2
f 56/74/6 52/70/6 50/66/6 54/72/6
f 57/75/4 58/78/4 60/83/4 59/81/4
f 59/81/5 60/83/5 64/88/5 63/87/5
f 63/87/1 64/88/1 62/86/1 61/85/1
f 61/85/3 62/86/3 58/79/3 57/76/3
f 59/82/2 63/87/2 61/85/2 57/77/2
f 64/88/6 60/84/6 58/80/6 62/86/6
